# xmcd
#
# Track frame offsets:
#	150
#	15029
#	29682
#	44739
#	60681
#	76402
#	102462
#	117074
#	127160
#	139182
#	162442
#	177089
#	197743
#	209221
#	221606
#	234866
#	243949
#	256771
#	268558
#	282263
#
# Disc length: 3835 seconds
# Revision: 0
# Processed by: cddbd v1.5.2PL0 Copyright (c) Steve Scherf et al.
# Submitted via: cdrLabel 7.1
#
DISCID=250ef914
DTITLE=Various Artist - Revolun psn
DYEAR=2003
DGENRE=Country
TTITLE0=Rudy prapor
TTITLE1=Rozkvetl den
TTITLE2=Dobr den
TTITLE3=Ztek je n
TTITLE4=Zemdlsk
TTITLE5=Pse o vnch dvou
TTITLE6=Pochod sportovc
TTITLE7=Pochod rudch sportovc
TTITLE8=Pochod rudch nmonk
TTITLE9=Pde o Fukovi
TTITLE10=Do novch ztk
TTITLE11=To je strana
TTITLE12=Pse proudovch stha
TTITLE13=Psnika sthacch letc
TTITLE14=Pse kombajnist
TTITLE15=Pochod Leninsk vzvy
TTITLE16=Raketa mld
TTITLE17=Vzesk
TTITLE18=Vped, soudruzi, smle
TTITLE19=Pse prce
EXTD=
EXTT0=
EXTT1=
EXTT2=
EXTT3=
EXTT4=
EXTT5=
EXTT6=
EXTT7=
EXTT8=
EXTT9=
EXTT10=
EXTT11=
EXTT12=
EXTT13=
EXTT14=
EXTT15=
EXTT16=
EXTT17=
EXTT18=
EXTT19=
PLAYORDER=
